<?xml version="1.0" standalone="no"?>
<!DOCTYPE svg PUBLIC "-//W3C//DTD SVG 20010904//EN"
 "http://www.w3.org/TR/2001/REC-SVG-20010904/DTD/svg10.dtd">
<svg version="1.0" xmlns="http://www.w3.org/2000/svg"
 width="51.000000pt" height="46.000000pt" viewBox="0 0 51.000000 46.000000"
 preserveAspectRatio="xMidYMid meet" color="#51A863">

<g transform="translate(0.000000,46.000000) scale(0.100000,-0.100000)"
fill="#51A863" stroke="none" color="#51A863">
<path fill="#51A863" d="M285 418 c-43 -40 -60 -114 -52 -229 8 -119 51 -179 129 -179 88 0
127 54 135 184 11 168 -35 256 -132 256 -37 0 -52 -6 -80 -32z m126 -8 c32
-18 51 -69 56 -154 8 -126 -19 -196 -82 -212 -36 -9 -83 14 -103 50 -21 40
-24 215 -3 264 22 52 85 77 132 52z"/>
<path fill="#51A863" d="M48 428 c-27 -7 -38 -16 -38 -28 0 -16 4 -17 32 -9 61 17 58 25 58
-186 0 -167 2 -195 15 -195 13 0 15 31 15 215 l0 215 -22 -1 c-13 -1 -40 -6
-60 -11z"/>
</g>
</svg>
