<svg width="24" height="32" viewBox="0 0 24 32" fill="none" xmlns="http://www.w3.org/2000/svg">
<path d="M0.5 30.9473V30.9469V3.99315C0.5 3.06699 0.868541 2.17858 1.52482 1.52342C2.18113 0.868235 3.07147 0.5 4 0.5H20C20.9285 0.5 21.8189 0.868235 22.4752 1.52342C23.1315 2.17858 23.5 3.06699 23.5 3.99315V30.9469L23.5 30.9473C23.5001 31.0337 23.4776 31.1186 23.4348 31.1938C23.3919 31.2689 23.3301 31.3318 23.2554 31.376C23.1807 31.4203 23.0957 31.4444 23.0087 31.4459C22.9217 31.4474 22.8359 31.4262 22.7597 31.3846L22.7592 31.3843L12.2392 25.6542L12 25.5239L11.7608 25.6542L1.24083 31.3843L1.24032 31.3846C1.1641 31.4262 1.07827 31.4474 0.99129 31.4459C0.904314 31.4444 0.819281 31.4203 0.744568 31.376C0.669861 31.3318 0.608086 31.2689 0.565242 31.1938C0.522401 31.1186 0.499937 31.0337 0.5 30.9473Z" fill="#2B5643" stroke="#F9FAFA"/>
</svg>
