<svg width="86" height="24" viewBox="0 0 86 24" fill="none" xmlns="http://www.w3.org/2000/svg">
  <path d="M11.552 23.008C9.44 23.008 7.49867 22.5173 5.728 21.536C3.97867 20.5547 2.58133 19.1893 1.536 17.44C0.512 15.6693 0 13.6853 0 11.488C0 9.29067 0.512 7.31733 1.536 5.568C2.58133 3.81867 3.97867 2.45333 5.728 1.472C7.49867 0.490667 9.44 0 11.552 0C13.664 0 15.5947 0.490667 17.344 1.472C19.1147 2.45333 20.5013 3.81867 21.504 5.568C22.528 7.31733 23.04 9.29067 23.04 11.488C23.04 13.6853 22.528 15.6693 21.504 17.44C20.48 19.1893 19.0933 20.5547 17.344 21.536C15.5947 22.5173 13.664 23.008 11.552 23.008ZM11.552 18.016C13.344 18.016 14.7733 17.4187 15.84 16.224C16.928 15.0293 17.472 13.4507 17.472 11.488C17.472 9.504 16.928 7.92533 15.84 6.752C14.7733 5.55733 13.344 4.96 11.552 4.96C9.73867 4.96 8.288 5.54667 7.2 6.72C6.13333 7.89333 5.6 9.48267 5.6 11.488C5.6 13.472 6.13333 15.0613 7.2 16.256C8.288 17.4293 9.73867 18.016 11.552 18.016Z" fill="#1C4032"/>
  <path d="M44.5803 22.784H39.1083L29.9562 8.928V22.784H24.4842V0.32H29.9562L39.1083 14.24V0.32H44.5803V22.784Z" fill="#1C4032"/>
  <path d="M55.3628 0.32C57.7308 0.32 59.8001 0.789333 61.5708 1.728C63.3414 2.66667 64.7067 3.98933 65.6667 5.696C66.6481 7.38133 67.1387 9.33333 67.1387 11.552C67.1387 13.7493 66.6481 15.7013 65.6667 17.408C64.7067 19.1147 63.3308 20.4373 61.5387 21.376C59.7681 22.3147 57.7094 22.784 55.3628 22.784H46.9468V0.32H55.3628ZM55.0107 18.048C57.0801 18.048 58.6908 17.4827 59.8428 16.352C60.9948 15.2213 61.5708 13.6213 61.5708 11.552C61.5708 9.48267 60.9948 7.872 59.8428 6.72C58.6908 5.568 57.0801 4.992 55.0107 4.992H52.4188V18.048H55.0107Z" fill="#1C4032"/>
  <path d="M85.7487 13.568C85.7487 14.08 85.7167 14.6133 85.6527 15.168H73.2687C73.3541 16.2773 73.7061 17.1307 74.3247 17.728C74.9647 18.304 75.7434 18.592 76.6608 18.592C78.0261 18.592 78.9754 18.016 79.5087 16.864H85.3327C85.0341 18.0373 84.4901 19.0933 83.7007 20.032C82.9327 20.9707 81.9621 21.7067 80.7887 22.24C79.6154 22.7733 78.3034 23.04 76.8527 23.04C75.1034 23.04 73.5461 22.6667 72.1807 21.92C70.8154 21.1733 69.7487 20.1067 68.9807 18.72C68.2127 17.3333 67.8288 15.712 67.8288 13.856C67.8288 12 68.2021 10.3787 68.9487 8.992C69.7167 7.60533 70.7834 6.53867 72.1488 5.792C73.5141 5.04533 75.0821 4.672 76.8527 4.672C78.5807 4.672 80.1167 5.03467 81.4607 5.76C82.8047 6.48533 83.8501 7.52 84.5967 8.864C85.3647 10.208 85.7487 11.776 85.7487 13.568ZM80.1488 12.128C80.1488 11.1893 79.8288 10.4427 79.1888 9.888C78.5488 9.33333 77.7487 9.056 76.7887 9.056C75.8714 9.056 75.0927 9.32267 74.4527 9.856C73.8341 10.3893 73.4501 11.1467 73.3008 12.128H80.1488Z" fill="#1C4032"/>
</svg>
